<svg id="calendar" xmlns="http://www.w3.org/2000/svg" width="33.531" height="33.531" viewBox="0 0 33.531 33.531">
  <path id="Path_205" data-name="Path 205" d="M29.689,73.4H3.842A3.845,3.845,0,0,1,0,69.562V46.51a3.845,3.845,0,0,1,3.842-3.842H29.689a3.845,3.845,0,0,1,3.842,3.842V69.562A3.845,3.845,0,0,1,29.689,73.4ZM3.842,44.764A1.749,1.749,0,0,0,2.1,46.51V69.562a1.749,1.749,0,0,0,1.746,1.746H29.689a1.749,1.749,0,0,0,1.746-1.746V46.51a1.749,1.749,0,0,0-1.746-1.746Zm0,0" transform="translate(0 -39.874)" fill="#bbb"/>
  <path id="Path_206" data-name="Path 206" d="M32.483,172.764H1.048a1.048,1.048,0,0,1,0-2.1H32.483a1.048,1.048,0,0,1,0,2.1Zm0,0" transform="translate(0 -159.491)" fill="#bbb"/>
  <path id="Path_207" data-name="Path 207" d="M107.716,8.383a1.048,1.048,0,0,1-1.048-1.048V1.048a1.048,1.048,0,0,1,2.1,0V7.335A1.048,1.048,0,0,1,107.716,8.383Zm0,0" transform="translate(-99.682)" fill="#bbb"/>
  <path id="Path_208" data-name="Path 208" d="M374.38,8.383a1.048,1.048,0,0,1-1.048-1.048V1.048a1.048,1.048,0,1,1,2.1,0V7.335A1.048,1.048,0,0,1,374.38,8.383Zm0,0" transform="translate(-348.883)" fill="#bbb"/>
</svg>
