<svg height="512pt" viewBox="0 -77 512 512" width="512pt" xmlns="http://www.w3.org/2000/svg"><path d="m392.53125 349.867188h93.867188c9.425781 0 17.070312-7.640626 17.070312-17.066407v-307.199219c0-9.425781-7.644531-17.070312-17.070312-17.070312h-460.796876c-9.425781 0-17.070312 7.644531-17.070312 17.070312v307.199219c0 9.425781 7.644531 17.066407 17.070312 17.066407zm0 0" fill="#2e7d32"/><path d="m449.179688 349.867188h24.273437c2.433594 0 4.414063-7.679688 4.414063-17.066407v-307.199219c0-9.429687-1.980469-17.070312-4.414063-17.070312h-119.175781c-2.429688 0-4.410156 7.683594-4.410156 17.070312v307.199219c0 9.386719 1.980468 17.066407 4.410156 17.066407zm0 0" fill="#4caf50"/><path d="m162.132812 8.53125v341.335938h-136.53125c-9.414062-.027344-17.039062-7.652344-17.070312-17.066407v-307.199219c.03125-9.414062 7.65625-17.039062 17.070312-17.070312zm0 0" fill="#2e7d32"/><path d="m136.53125 8.53125v341.335938h-113.773438c-8.59375-.878907-14.910156-8.457032-14.226562-17.066407v-307.199219c-.683594-8.613281 5.632812-16.191406 14.226562-17.070312zm0 0" fill="#4caf50"/><path d="m162.132812 8.53125h187.734376v341.335938h-187.734376zm0 0" fill="#cfd8dc"/><path d="m162.132812 8.53125h162.132813v341.335938h-162.132813zm0 0" fill="#f5f5f5"/><path d="m486.398438 0h-460.796876c-14.140624 0-25.601562 11.460938-25.601562 25.601562v307.199219c0 14.136719 11.460938 25.597657 25.601562 25.597657h460.796876c14.140624 0 25.601562-11.460938 25.601562-25.597657v-307.199219c0-14.140624-11.460938-25.601562-25.601562-25.601562zm-469.332032 332.800781v-307.199219c0-4.714843 3.820313-8.535156 8.535156-8.535156h128v324.269532h-128c-4.714843-.003907-8.535156-3.824219-8.535156-8.535157zm153.601563 8.53125v-324.265625h170.667969v324.269532h-170.667969zm324.265625-8.53125c0 4.710938-3.820313 8.53125-8.535156 8.53125h-128v-324.265625h128c4.714843 0 8.535156 3.820313 8.535156 8.535156zm0 0"/></svg>